<svg width="100" height="100" viewBox="0 0 26.458 26.458" version="1.1" id="svg1036" xmlns="http://www.w3.org/2000/svg"><g id="layer1"><path d="M1.836 4.182A1.68 1.68 0 0 0 .16 5.857v14.744a1.68 1.68 0 0 0 1.676 1.676h22.786a1.68 1.68 0 0 0 1.676-1.676V5.857a1.68 1.68 0 0 0-1.676-1.675zm0 .67h22.786a.996.996 0 0 1 1.006 1.005v3.686h-6.011a7.377 7.377 0 0 0-6.388-3.696 7.377 7.377 0 0 0-6.388 3.696H.831V5.857A.996.996 0 0 1 1.836 4.85zm11.393 1.665a6.715 6.715 0 0 1 6.713 6.712c0 3.706-3.007 6.692-6.713 6.692a6.688 6.688 0 0 1-6.702-6.692c0-3.705 2.997-6.712 6.702-6.712zm8.315.345a.346.346 0 0 0-.273.335v.67c0 .176.16.335.336.336h1.675c.176 0 .335-.16.335-.336v-.67a.348.348 0 0 0-.335-.335h-1.738zm-8.315.67a5.702 5.702 0 0 0-5.696 5.697 5.702 5.702 0 0 0 5.696 5.696 5.702 5.702 0 0 0 5.697-5.696 5.702 5.702 0 0 0-5.697-5.697zm0 .67a5.021 5.021 0 0 1 5.027 5.027 5.021 5.021 0 0 1-5.027 5.026 5.021 5.021 0 0 1-5.026-5.026 5.021 5.021 0 0 1 5.026-5.027zm0 .995c-2.217 0-4.02 1.815-4.02 4.032a4.026 4.026 0 0 0 4.02 4.02 4.026 4.026 0 0 0 4.021-4.02c0-2.217-1.804-4.032-4.02-4.032zm0 .68a3.346 3.346 0 0 1 3.351 3.352 3.337 3.337 0 0 1-3.35 3.34 3.337 3.337 0 0 1-3.352-3.34 3.346 3.346 0 0 1 3.351-3.351zm-12.398.336h5.675a7.354 7.354 0 0 0-.638 2.67l-5.037.01zm19.121 0h5.676v2.68l-5.037-.01a7.349 7.349 0 0 0-.639-2.67zm-6.89 1.34a1.687 1.687 0 0 0-1.508 1.676 1.675 1.675 0 1 0 1.675-1.676c-.058 0-.111-.005-.167 0zm-7.195 2c.042.955.268 1.865.639 2.692H.83v-2.681zm14.724 0 5.037.01v2.682h-5.676a7.348 7.348 0 0 0 .639-2.692z" id="path64" style="stroke-width:.0598389px"/></g></svg>