<?xml version="1.0" encoding="UTF-8" standalone="no"?>
<!-- Created with Inkscape (http://www.inkscape.org/) -->

<svg
   width="100"
   height="100"
   viewBox="0 0 26.458333 26.458334"
   version="1.1"
   id="svg1036"
   inkscape:version="1.1.2 (0a00cf5339, 2022-02-04, custom)"
   sodipodi:docname="foto.svg"
   xmlns:inkscape="http://www.inkscape.org/namespaces/inkscape"
   xmlns:sodipodi="http://sodipodi.sourceforge.net/DTD/sodipodi-0.dtd"
   xmlns="http://www.w3.org/2000/svg"
   xmlns:svg="http://www.w3.org/2000/svg">
  <sodipodi:namedview
     id="namedview1038"
     pagecolor="#ffffff"
     bordercolor="#666666"
     borderopacity="1.0"
     inkscape:pageshadow="2"
     inkscape:pageopacity="0.0"
     inkscape:pagecheckerboard="0"
     inkscape:document-units="mm"
     showgrid="false"
     units="px"
     inkscape:zoom="1.3448479"
     inkscape:cx="-13.756203"
     inkscape:cy="75.101432"
     inkscape:window-width="1920"
     inkscape:window-height="1015"
     inkscape:window-x="0"
     inkscape:window-y="0"
     inkscape:window-maximized="1"
     inkscape:current-layer="layer1" />
  <defs
     id="defs1033" />
  <g
     inkscape:label="Camada 1"
     inkscape:groupmode="layer"
     id="layer1">
    <path
       d="m 1.835845,4.1815294 c -0.92235607,0 -1.67548826,0.7531322 -1.67548826,1.6754882 V 20.601316 c 0,0.922356 0.75313219,1.675488 1.67548826,1.675488 h 22.786643 c 0.922356,0 1.675489,-0.753132 1.675489,-1.675488 V 5.8570176 c 0,-0.922356 -0.753133,-1.6754882 -1.675489,-1.6754882 z m 0,0.6701355 h 22.786643 c 0.562857,0 1.005353,0.4424787 1.005353,1.0053527 V 9.543212 h -6.010815 c -1.27391,-2.2065583 -3.660942,-3.6966661 -6.387799,-3.6966661 -2.726858,0 -5.1141302,1.4901078 -6.3878007,3.6964265 H 0.83061168 V 5.8567787 c 0,-0.562623 0.44247872,-1.0053534 1.00535342,-1.0053534 z M 13.229166,6.516622 c 3.705344,0 6.712725,3.0071423 6.712725,6.712724 0,3.705582 -3.007142,6.691183 -6.712725,6.691183 -3.7055813,0 -6.7019535,-2.986079 -6.7019535,-6.691183 0,-3.7051032 2.9966111,-6.712724 6.7019535,-6.712724 z m 8.314612,0.3454734 c -0.15357,0.029452 -0.275121,0.1788168 -0.272314,0.3351932 v 0.6701355 c 0,0.1755435 0.15965,0.3349606 0.335193,0.3351939 h 1.675488 c 0.175544,0 0.335194,-0.1596504 0.335194,-0.3351939 V 7.1972886 c 0,-0.1755428 -0.15965,-0.3349599 -0.335194,-0.3351932 h -1.738379 z m -8.314612,0.6701355 c -3.142259,0 -5.6966001,2.5544021 -5.6966001,5.6966001 0,3.14226 2.5544021,5.696601 5.6966001,5.696601 3.1422,0 5.696601,-2.554401 5.696601,-5.696601 0,-3.142258 -2.554401,-5.6966001 -5.696601,-5.6966001 z m 0,0.6701355 c 2.779935,0 5.026466,2.2465306 5.026466,5.0264646 0,2.779935 -2.246531,5.026466 -5.026466,5.026466 -2.779934,0 -5.0264646,-2.246531 -5.0264646,-5.026466 0,-2.779934 2.2465306,-5.0264646 5.0264646,-5.0264646 z m 0,0.9948216 c -2.21685,0 -4.0211119,1.814793 -4.0211119,4.031643 0,2.216852 1.8042619,4.021113 4.0211119,4.021113 2.216852,0 4.021113,-1.804261 4.021113,-4.021113 0,-2.21685 -1.804261,-4.031643 -4.021113,-4.031643 z m 0,0.6806673 c 1.854766,0 3.350978,1.4962107 3.350978,3.3509757 0,1.854766 -1.496212,3.340446 -3.350978,3.340446 -1.854765,0 -3.3509764,-1.485919 -3.3509764,-3.340446 0,-1.854526 1.4962114,-3.3509757 3.3509764,-3.3509757 z M 0.83055226,10.213049 H 6.5063885 c -0.3683795,0.821407 -0.594882,1.723658 -0.6388397,2.670309 l -5.03699654,0.01052 z m 19.12151174,0 h 5.675837 v 2.68084 l -5.036997,-0.01028 c -0.04394,-0.946651 -0.270209,-1.848902 -0.63884,-2.67031 z m -6.890446,1.34027 c -0.844985,0.08578 -1.50788,0.808064 -1.50788,1.675488 0,0.925409 0.75008,1.675489 1.675489,1.675489 0.925408,0 1.675488,-0.75008 1.675488,-1.675489 0,-0.925408 -0.75008,-1.675488 -1.675488,-1.675488 -0.05774,0 -0.111265,-0.0056 -0.167597,0 z m -7.1944283,2.000175 c 0.041609,0.95413 0.2676414,1.864818 0.6388398,2.691372 H 0.83019319 v -2.680841 z m 14.7233553,0 5.036997,0.01028 v 2.68084 h -5.675837 c 0.371187,-0.826314 0.597222,-1.737182 0.63884,-2.691373 z"
       id="path64"
       style="stroke-width:0.0598389" />
  </g>
</svg>
